<?xml version="1.0" standalone="no"?>
<!DOCTYPE svg PUBLIC "-//W3C//DTD SVG 20010904//EN"
 "http://www.w3.org/TR/2001/REC-SVG-20010904/DTD/svg10.dtd">
<svg version="1.0" xmlns="http://www.w3.org/2000/svg"
 width="100.000000pt" height="200.000000pt" viewBox="0 0 780.000000 318.000000"
 preserveAspectRatio="xMidYMid meet">

<g transform="translate(0.000000,318.000000) scale(0.100000,-0.100000)"
fill="#ffffff" stroke="none">
<path d="M1668 2941 c-112 -36 -190 -158 -173 -270 24 -162 185 -256 337 -198
51 20 112 80 134 133 19 44 18 146 -2 192 -19 47 -68 98 -118 124 -44 23 -136
32 -178 19z"/>
<path d="M1400 2493 c-97 -19 -796 -185 -810 -193 -29 -15 -59 -59 -66 -95
-11 -62 52 -135 119 -135 15 0 124 23 242 51 119 28 219 49 223 47 4 -2 -102
-217 -235 -478 -133 -261 -242 -481 -243 -487 -1 -30 39 -6 155 92 68 58 126
105 129 105 3 0 7 -213 8 -474 3 -461 4 -475 24 -503 11 -15 40 -38 65 -51 73
-38 145 -18 195 56 19 28 21 50 28 264 8 276 19 420 47 623 26 185 56 293 114
412 60 121 219 333 231 308 3 -5 19 -46 37 -90 48 -119 50 -119 317 -123 159
-3 225 0 255 10 93 31 115 161 36 215 -22 15 -56 19 -215 23 l-190 5 -31 80
c-48 122 -73 164 -132 226 -80 84 -207 131 -303 112z"/>
<path d="M2187 2433 c-4 -3 -7 -15 -7 -25 0 -13 -8 -18 -27 -18 -35 0 -118
-39 -160 -74 -35 -30 -83 -118 -83 -153 l0 -23 300 0 c217 0 300 3 300 11 0
35 -29 96 -64 136 -44 50 -142 103 -190 103 -20 0 -27 4 -23 14 9 24 -28 47
-46 29z"/>
<path d="M1892 2103 c3 -17 25 -18 313 -18 269 0 310 2 310 15 0 13 -43 15
-313 18 -295 2 -313 1 -310 -15z"/>
<path d="M3003 1829 c-23 -11 -44 -28 -48 -37 -40 -99 -13 -136 129 -179 35
-11 65 -27 73 -40 22 -33 -12 -63 -70 -63 -44 0 -67 15 -80 53 -5 12 -17 17
-47 17 -47 0 -52 -16 -21 -66 27 -44 83 -68 158 -68 93 1 148 47 148 127 0 53
-33 80 -140 112 -81 25 -85 28 -85 55 0 32 14 40 71 40 32 0 41 -4 51 -25 9
-20 18 -25 50 -25 33 0 38 3 38 23 0 30 -47 75 -91 87 -52 15 -90 12 -136 -11z"/>
<path d="M4630 1645 l0 -195 40 0 40 0 0 195 0 195 -40 0 -40 0 0 -195z"/>
<path d="M5830 1645 l0 -195 103 0 c56 0 118 5 138 10 48 13 79 50 86 99 5 37
2 44 -29 74 l-35 33 23 28 c26 29 31 65 13 98 -19 35 -70 48 -189 48 l-110 0
0 -195z m200 122 c14 -7 26 -22 28 -34 5 -35 -23 -53 -84 -53 l-54 0 0 50 0
50 43 0 c23 0 53 -6 67 -13z m-2 -143 c39 -8 58 -51 36 -83 -13 -18 -25 -21
-80 -21 l-64 0 0 55 0 55 39 0 c21 0 52 -3 69 -6z"/>
<path d="M6279 1811 c-33 -34 -38 -74 -12 -110 16 -23 15 -25 -14 -50 -65 -55
-72 -116 -17 -167 46 -44 112 -49 171 -13 32 20 32 20 45 0 10 -17 23 -21 61
-21 l49 0 -41 46 c-34 39 -39 49 -30 67 6 11 15 33 19 48 8 28 7 29 -26 29
-26 0 -34 -4 -34 -18 0 -32 -11 -32 -37 -2 l-25 30 30 30 c70 69 30 160 -68
160 -33 0 -48 -6 -71 -29z m109 -49 c3 -22 -22 -62 -38 -62 -13 0 -33 59 -26
75 10 26 60 15 64 -13z m-29 -177 c36 -42 37 -44 14 -61 -61 -46 -136 23 -83
76 27 27 33 26 69 -15z"/>
<path d="M6590 1645 l0 -195 103 0 c56 0 118 5 138 10 48 13 79 50 86 99 5 37
2 44 -29 74 l-35 33 23 28 c26 29 31 65 13 98 -19 35 -70 48 -189 48 l-110 0
0 -195z m200 122 c14 -7 26 -22 28 -34 5 -35 -23 -53 -84 -53 l-54 0 0 50 0
50 43 0 c23 0 53 -6 67 -13z m-2 -143 c39 -8 58 -51 36 -83 -13 -18 -25 -21
-80 -21 l-64 0 0 55 0 55 39 0 c21 0 52 -3 69 -6z"/>
<path d="M3365 1730 c-73 -30 -108 -146 -65 -217 29 -49 74 -67 154 -64 28 1
96 57 96 80 0 18 -50 12 -77 -9 -46 -36 -113 -16 -113 33 0 15 13 17 101 17
l102 0 -6 40 c-7 51 -29 85 -70 110 -33 21 -87 25 -122 10z m105 -69 c18 -36
12 -41 -50 -41 -53 0 -60 2 -60 20 0 40 90 57 110 21z"/>
<path d="M3710 1712 l-30 -30 0 24 c0 21 -5 24 -35 24 l-35 0 0 -140 0 -140
34 0 34 0 4 91 c3 81 6 93 27 110 13 10 36 19 51 19 24 0 29 5 32 28 2 19 16
-11 49 -108 l46 -135 43 0 42 0 48 138 47 137 -37 0 -36 0 -29 -92 c-27 -93
-28 -93 -41 -63 -7 17 -21 58 -31 93 -17 58 -20 62 -48 62 -16 0 -47 3 -67 6
-32 6 -41 2 -68 -24z"/>
<path d="M4163 1720 c-38 -23 -73 -86 -73 -132 0 -121 152 -188 236 -104 19
19 34 39 34 45 0 18 -50 12 -77 -9 -34 -27 -78 -26 -97 2 -31 44 -23 48 84 48
l100 0 0 33 c0 100 -122 169 -207 117z m117 -59 c18 -36 12 -41 -50 -41 -45 0
-60 3 -60 14 0 43 89 65 110 27z"/>
<path d="M4519 1711 l-29 -29 0 24 c0 21 -5 24 -35 24 l-35 0 0 -140 0 -140
34 0 34 0 4 91 c4 81 7 94 27 110 13 11 36 19 52 19 26 0 29 3 29 35 0 31 -3
35 -26 35 -15 0 -38 -12 -55 -29z"/>
<path d="M4845 1730 c-73 -30 -108 -146 -65 -217 52 -86 194 -87 237 -2 12 22
10 24 -13 27 -14 2 -34 -4 -43 -12 -29 -26 -79 -31 -101 -11 -11 10 -20 26
-20 37 0 16 10 18 101 18 l102 0 -7 43 c-4 23 -14 52 -22 65 -33 51 -113 76
-169 52z m101 -67 c26 -35 17 -43 -46 -43 -53 0 -60 2 -60 20 0 38 81 56 106
23z"/>
<path d="M5134 1731 c-30 -13 -54 -50 -54 -83 0 -34 28 -54 102 -73 52 -14 83
-39 72 -57 -20 -32 -104 -26 -104 7 0 11 -11 15 -41 15 -22 0 -39 -3 -37 -7
36 -76 59 -88 166 -84 45 1 92 48 92 90 0 41 -31 68 -98 82 -64 15 -89 34 -71
55 17 21 67 17 81 -6 9 -13 24 -20 46 -20 28 0 33 3 30 21 -5 35 -51 62 -110
66 -29 1 -63 -1 -74 -6z"/>
<path d="M5418 1725 c-15 -9 -31 -30 -38 -49 -18 -54 -2 -72 85 -98 74 -22
101 -46 77 -70 -18 -18 -74 -12 -93 10 -23 29 -79 31 -79 4 0 -38 61 -73 129
-74 61 0 109 24 118 60 17 67 1 87 -88 112 -67 18 -96 43 -69 60 27 18 71 12
77 -10 4 -16 14 -20 44 -20 43 0 46 5 23 39 -33 47 -130 66 -186 36z"/>
</g>
</svg>
